<svg width="28" height="28" viewBox="0 0 28 28" fill="none" xmlns="http://www.w3.org/2000/svg">
<path d="M6.14653 11.375C6.14507 10.3377 6.34886 9.31029 6.74615 8.35205C7.14344 7.39381 7.72639 6.52364 8.46142 5.79166C9.19645 5.05968 10.069 4.48035 11.0289 4.08705C11.9888 3.69374 13.017 3.49423 14.0543 3.5C18.3856 3.53281 21.8528 7.13125 21.8528 11.4734V12.25C21.8528 16.1656 22.6731 18.4406 23.395 19.6875C23.4716 19.8203 23.5121 19.9709 23.5122 20.1242C23.5123 20.2776 23.4722 20.4282 23.3957 20.5612C23.3193 20.6941 23.2093 20.8046 23.0767 20.8816C22.9441 20.9586 22.7936 20.9995 22.6403 21H5.35903C5.2057 20.9995 5.0552 20.9586 4.92261 20.8816C4.79002 20.8046 4.68 20.6941 4.60357 20.5612C4.52713 20.4282 4.48697 20.2776 4.48711 20.1242C4.48725 19.9709 4.52767 19.8203 4.60434 19.6875C5.32622 18.4406 6.14653 16.1656 6.14653 12.25V11.375Z" stroke="currentColor" stroke-width="1.5" stroke-linecap="round" stroke-linejoin="round"/>
<path d="M10.5 21V21.875C10.5 22.8033 10.8687 23.6935 11.5251 24.3499C12.1815 25.0063 13.0717 25.375 14 25.375C14.9283 25.375 15.8185 25.0063 16.4749 24.3499C17.1313 23.6935 17.5 22.8033 17.5 21.875V21" stroke="currentColor" stroke-width="1.5" stroke-linecap="round" stroke-linejoin="round"/>
</svg>
