<svg width="28" height="28" viewBox="0 0 28 28" fill="none" xmlns="http://www.w3.org/2000/svg">
<rect x="6.75" y="4.75" width="14.5" height="19.5" rx="1.25" stroke="currentColor" stroke-width="1.5"/>
<path d="M19.2973 12.2973C19.2973 13.0138 18.7165 13.5946 18 13.5946C17.2835 13.5946 16.7027 13.0138 16.7027 12.2973C16.7027 11.5808 17.2835 11 18 11C18.7165 11 19.2973 11.5808 19.2973 12.2973Z" fill="currentColor"/>
<path d="M11.5946 16.2973C11.5946 17.0138 11.0138 17.5946 10.2973 17.5946C9.58082 17.5946 9.00001 17.0138 9.00001 16.2973C9.00001 15.5808 9.58082 15 10.2973 15C11.0138 15 11.5946 15.5808 11.5946 16.2973Z" fill="currentColor"/>
<path d="M15.5946 16.2973C15.5946 17.0138 15.0138 17.5946 14.2973 17.5946C13.5808 17.5946 13 17.0138 13 16.2973C13 15.5808 13.5808 15 14.2973 15C15.0138 15 15.5946 15.5808 15.5946 16.2973Z" fill="currentColor"/>
<path d="M11.5946 20.2973C11.5946 21.0138 11.0138 21.5946 10.2973 21.5946C9.58082 21.5946 9.00001 21.0138 9.00001 20.2973C9.00001 19.5808 9.58082 19 10.2973 19C11.0138 19 11.5946 19.5808 11.5946 20.2973Z" fill="currentColor"/>
<path d="M15.5946 20.2973C15.5946 21.0138 15.0138 21.5946 14.2973 21.5946C13.5808 21.5946 13 21.0138 13 20.2973C13 19.5808 13.5808 19 14.2973 19C15.0138 19 15.5946 19.5808 15.5946 20.2973Z" fill="currentColor"/>
<path d="M18 21.0132L18 17.0001" stroke="currentColor" stroke-width="2.59459" stroke-linecap="round"/>
<path d="M10 8H14.3243" stroke="currentColor" stroke-width="2.59459" stroke-linecap="round"/>
<path d="M11.5946 12.2973C11.5946 13.0138 11.0138 13.5946 10.2973 13.5946C9.58082 13.5946 9.00001 13.0138 9.00001 12.2973C9.00001 11.5808 9.58082 11 10.2973 11C11.0138 11 11.5946 11.5808 11.5946 12.2973Z" fill="#E34255"/>
<path d="M15.5946 12.2973C15.5946 13.0138 15.0138 13.5946 14.2973 13.5946C13.5808 13.5946 13 13.0138 13 12.2973C13 11.5808 13.5808 11 14.2973 11C15.0138 11 15.5946 11.5808 15.5946 12.2973Z" fill="#E34255"/>
</svg>
