<svg width="20" height="20" viewBox="0 0 20 20" fill="none" xmlns="http://www.w3.org/2000/svg">
<path d="M17.556 9.88066L16.9141 9.49278L16.9141 9.49278L17.556 9.88066ZM10.1193 2.44393L9.73141 1.80202L9.73141 1.80202L10.1193 2.44393ZM6.20888 16.5692C5.85033 16.3618 5.39153 16.4844 5.18413 16.8429C4.97672 17.2014 5.09924 17.6602 5.45779 17.8676L6.20888 16.5692ZM2.13231 14.5422C2.33972 14.9007 2.79851 15.0232 3.15706 14.8158C3.51561 14.6084 3.63813 14.1496 3.43072 13.7911L2.13231 14.5422ZM17.5833 9.99996C17.5833 14.1881 14.1882 17.5833 10 17.5833V19.0833C15.0166 19.0833 19.0833 15.0165 19.0833 9.99996H17.5833ZM2.41666 9.99996C2.41666 5.8118 5.81184 2.41663 10 2.41663V0.916626C4.98341 0.916626 0.916664 4.98337 0.916664 9.99996H2.41666ZM12.9167 11.75C10.3393 11.75 8.25 9.66062 8.25 7.08329H6.75C6.75 10.489 9.51091 13.25 12.9167 13.25V11.75ZM16.9141 9.49278C16.0957 10.8472 14.6112 11.75 12.9167 11.75V13.25C15.158 13.25 17.1192 12.0538 18.1979 10.2685L16.9141 9.49278ZM8.25 7.08329C8.25 5.38871 9.15276 3.90426 10.5072 3.08584L9.73141 1.80202C7.9462 2.88075 6.75 4.84197 6.75 7.08329H8.25ZM10 2.41663C9.89218 2.41663 9.77318 2.36948 9.68685 2.27963C9.61204 2.20175 9.59046 2.12323 9.58474 2.08088C9.57595 2.01584 9.5913 1.88668 9.73141 1.80202L10.5072 3.08584C10.9773 2.80176 11.1258 2.28395 11.0712 1.88012C11.0144 1.45899 10.6781 0.916626 10 0.916626V2.41663ZM18.1979 10.2685C18.1133 10.4087 17.9841 10.424 17.9191 10.4152C17.8767 10.4095 17.7982 10.3879 17.7203 10.3131C17.6305 10.2268 17.5833 10.1078 17.5833 9.99996H19.0833C19.0833 9.32189 18.541 8.98559 18.1198 8.92871C17.716 8.87418 17.1982 9.02266 16.9141 9.49278L18.1979 10.2685ZM10 17.5833C8.6175 17.5833 7.32352 17.214 6.20888 16.5692L5.45779 17.8676C6.79459 18.6409 8.34677 19.0833 10 19.0833V17.5833ZM3.43072 13.7911C2.78593 12.6764 2.41666 11.3825 2.41666 9.99996H0.916664C0.916664 11.6532 1.35901 13.2054 2.13231 14.5422L3.43072 13.7911Z" fill="currentColor"/>
</svg>
