<svg width="20" height="20" viewBox="0 0 20 20" fill="none" xmlns="http://www.w3.org/2000/svg">
<path d="M6.07043 8.61115C5.91688 9.04557 5.83334 9.51305 5.83334 10C5.83334 12.3012 7.69882 14.1667 10 14.1667C12.3012 14.1667 14.1667 12.3012 14.1667 10C14.1667 7.69885 12.3012 5.83337 10 5.83337C9.51301 5.83337 9.04553 5.91692 8.61111 6.07047" stroke="currentColor" stroke-width="1.25" stroke-linecap="round"/>
<path d="M10 1.66663V3.33329" stroke="currentColor" stroke-width="1.25" stroke-linecap="round"/>
<path d="M10 16.6666V18.3333" stroke="currentColor" stroke-width="1.25" stroke-linecap="round"/>
<path d="M3.33334 10L1.66667 10" stroke="currentColor" stroke-width="1.25" stroke-linecap="round"/>
<path d="M18.3333 10L16.6667 10" stroke="currentColor" stroke-width="1.25" stroke-linecap="round"/>
<path d="M16.4815 3.51843L14.6298 5.21142" stroke="currentColor" stroke-width="1.25" stroke-linecap="round"/>
<path d="M3.51847 3.51843L5.37015 5.21142" stroke="currentColor" stroke-width="1.25" stroke-linecap="round"/>
<path d="M5.37028 14.6298L3.51843 16.4816" stroke="currentColor" stroke-width="1.25" stroke-linecap="round"/>
<path d="M16.4815 16.4816L14.6298 14.6297" stroke="currentColor" stroke-width="1.25" stroke-linecap="round"/>
</svg>
